<svg width="136" height="50" viewBox="0 0 136 50" fill="none" xmlns="http://www.w3.org/2000/svg">
<path d="M88.234 2.33577C85.8681 1.04174 83.2326 0.384766 80.4079 0.384766H79.4907C76.6224 0.384766 73.9725 1.01188 71.6137 2.24773C69.2913 3.47004 67.4349 5.23593 66.0881 7.49831C64.7487 9.7659 64.0716 12.4457 64.0716 15.4616C64.0716 18.1189 64.6831 20.4806 65.8917 22.4824C67.1002 24.4664 68.7599 26.0187 70.8275 27.0931C72.9242 28.1773 75.2901 28.7268 77.86 28.7268C78.8501 28.7268 79.8402 28.603 80.801 28.3572V23.2671C80.5026 23.2985 80.1968 23.3142 79.8838 23.3142C77.6561 23.3142 75.7852 22.5914 74.3146 21.1669C72.8441 19.7311 72.0941 17.8799 72.0941 15.6625V14.2541C72.0941 12.0791 72.8659 10.2362 74.38 8.77669C75.8943 7.33316 77.7436 6.6015 79.8838 6.6015C82.1042 6.6015 83.9898 7.32345 85.4822 8.74659C86.9746 10.1871 87.739 12.0396 87.739 14.2541V35.1721C87.739 36.5566 87.3459 37.8684 86.5668 39.0706C85.8024 40.2421 84.8197 41.1791 83.6404 41.8579C82.432 42.5447 81.1942 42.892 79.9494 42.892C77.7799 42.892 75.9819 42.111 74.6058 40.5706C74.1545 40.0666 73.7758 39.5223 73.4702 38.9391C72.4072 36.8939 70.2305 35.7171 67.9737 35.7171H65.0035C65.1054 38.3894 65.746 40.7437 66.9108 42.7263C68.1776 44.8959 69.9393 46.5589 72.1598 47.6705C74.4093 48.8027 76.9355 49.376 79.6874 49.376H80.6046C83.3637 49.376 85.9554 48.6996 88.2923 47.3639C90.6074 46.0257 92.4711 44.1628 93.8397 41.8286C95.201 39.4954 95.8926 36.8724 95.8926 34.0328V15.8639C95.8926 12.8497 95.2155 10.2214 93.8325 7.82612C92.4783 5.48518 90.5928 3.63787 88.234 2.33577ZM111.234 47.1118C111.571 47.3281 111.922 47.5285 112.285 47.7136C114.102 46.1027 115.639 44.1679 116.811 42.0001C115.84 41.5932 114.965 40.9548 114.193 40.0879C112.754 38.4666 112.024 36.4577 112.024 34.115V15.7288C112.024 13.3838 112.754 11.3734 114.193 9.75564L114.211 9.73598C114.26 9.68107 114.308 9.6255 114.356 9.56925C114.933 8.95609 115.565 8.46628 116.25 8.10091C116.075 7.81496 115.893 7.53374 115.705 7.25725L115.705 7.25701C115.067 6.31755 114.356 5.43415 113.579 4.61549L113.578 4.61361C113.528 4.56131 113.478 4.50925 113.428 4.45744L113.4 4.42886L113.349 4.37662L113.327 4.35405L113.269 4.29532L113.248 4.27414L113.193 4.21918L113.175 4.20073L113.162 4.18817L113.093 4.11955L113.092 4.11815L113.021 4.0485L112.979 4.00743L112.937 3.96708L112.928 3.95859L112.878 3.91017L112.87 3.90234L112.814 3.84883L112.792 3.82826L112.749 3.78755L112.705 3.74617L112.664 3.70837L112.661 3.70533L112.593 3.64224L112.588 3.63775L112.515 3.57052L112.508 3.56433L112.441 3.50366L112.433 3.49595L112.39 3.45743L112.357 3.42776L112.315 3.38984L112.267 3.34749L112.242 3.32528L112.172 3.26431L112.161 3.2546L112.093 3.19514L112.078 3.18209L112.069 3.17475C112.015 3.12773 111.96 3.08095 111.905 3.03454L111.902 3.03259L111.842 2.98175L111.829 2.97125L111.797 2.94383L111.727 2.88601L111.725 2.88437C111.636 2.81126 111.547 2.73912 111.457 2.66753L111.457 2.66747L111.38 2.6057L111.38 2.60576L111.367 2.59605L111.169 2.72116C108.988 4.12562 107.238 6.0484 105.963 8.43801C105.939 8.48291 105.915 8.52799 105.891 8.57325C104.625 10.9817 103.966 13.6863 103.93 16.6142C103.929 16.7211 103.928 16.8283 103.928 16.9358V28.5448H103.929V32.9021C103.929 35.9291 104.589 38.7197 105.891 41.1976C107.196 43.6784 108.994 45.6682 111.234 47.1118ZM118.776 49.3385C120.187 49.4026 121.612 49.3024 122.98 49.0375V49.0665C124.569 48.785 126.077 48.2287 127.479 47.4058C127.643 47.3112 127.804 47.2132 127.962 47.1118C128.149 46.9912 128.333 46.8667 128.514 46.7385L128.535 46.7234L128.591 46.6837C130.51 45.3104 132.071 43.4937 133.239 41.273C134.507 38.8596 135.166 36.1491 135.2 33.2144C135.202 33.1105 135.202 33.0065 135.202 32.9021V21.2971H135.202V16.9358C135.202 13.9079 134.541 11.1161 133.239 8.63738C131.934 6.15592 130.136 4.16518 127.896 2.72116C124.752 0.698506 120.676 -0.0110051 116.879 0.594389C123.423 4.06039 127.923 11.0708 127.923 19.1076V24.6723V31.9682C127.923 32.0692 127.922 32.1701 127.92 32.2708L127.919 32.3544C127.917 32.4357 127.915 32.517 127.913 32.5981L127.911 32.6628C127.908 32.7623 127.904 32.8615 127.899 32.9607L127.896 33.0274C127.892 33.1076 127.888 33.1878 127.883 33.2677L127.878 33.3518C127.872 33.4443 127.865 33.5366 127.858 33.6287L127.857 33.6475L127.856 33.6502L127.856 33.6549C127.848 33.7513 127.84 33.8475 127.831 33.9435L127.823 34.0295C127.815 34.109 127.807 34.1883 127.798 34.2676L127.792 34.3261C127.781 34.4252 127.769 34.5242 127.757 34.6228L127.749 34.6803C127.739 34.7616 127.728 34.8428 127.717 34.9239L127.706 34.9989C127.678 35.1954 127.647 35.391 127.613 35.5858L127.601 35.6547C127.586 35.74 127.571 35.8251 127.555 35.91L127.547 35.9492C127.528 36.0489 127.509 36.1482 127.488 36.2473L127.48 36.2863C127.462 36.3735 127.443 36.4605 127.424 36.5472L127.412 36.6012C127.368 36.7987 127.321 36.9952 127.271 37.1905L127.26 37.2353C127.237 37.3241 127.214 37.4127 127.19 37.501L127.182 37.5321C127.154 37.6316 127.127 37.7309 127.098 37.8299L127.094 37.8441C127.067 37.9366 127.04 38.0289 127.012 38.1208L127 38.1609C126.94 38.3561 126.877 38.5502 126.812 38.7429L126.802 38.774C126.771 38.8654 126.739 38.9565 126.707 39.0474L126.701 39.0643C126.63 39.2616 126.557 39.4574 126.481 39.6518L126.476 39.6642C124.924 43.6317 122.212 47.0056 118.776 49.3385ZM56.0328 8.23548H56.0366V7.15611C56.0366 3.41684 53.0804 0.38489 49.4346 0.38489H39.875V4.96994H40.4384C42.8318 4.96994 45.1317 5.40084 47.2684 6.19032V6.19117C50.7133 7.46384 53.7339 9.6687 56.0366 12.5053V8.45536C56.0366 8.38177 56.0351 8.30853 56.0328 8.23548ZM47.2684 14.9927V49.2923H56.0366V21.3069C53.7339 18.4702 50.7133 16.2654 47.2684 14.9927Z" fill="#FFFDFA"/>
<path d="M14.2094 49.3958L28.821 12.8947C28.6544 12.8721 28.4864 12.8536 28.3175 12.8394C27.2385 12.9335 26.3399 13.0632 25.5359 13.2488C24.046 13.5929 22.88 14.1304 21.9998 14.717C21.301 15.1827 20.7822 15.6792 20.3111 16.0491C19.8897 16.5824 19.526 17.1849 19.2358 17.8589L5.78906 49.3958H14.2094Z" fill="#FFFDFA"/>
<path d="M31.82 0.384766H0.800781V7.40031H23.3145L23.4098 7.35881C25.1331 6.61205 27.4054 5.94046 29.6881 5.40435C31.5557 4.96587 31.9336 2.30057 31.82 0.673626C31.82 0.577398 31.82 0.462245 31.82 0.384766Z" fill="#FFFDFA"/>
</svg>
