<svg width="72" height="32" viewBox="0 0 72 32" fill="none" xmlns="http://www.w3.org/2000/svg">
<path d="M46.116 4.66779C44.9331 4.02078 43.6153 3.69229 42.203 3.69229H41.7444C40.3102 3.69229 38.9853 4.00585 37.8059 4.62377C36.6447 5.23493 35.7165 6.11787 35.0431 7.24906C34.3734 8.38286 34.0348 9.72276 34.0348 11.2307C34.0348 12.5594 34.3406 13.7402 34.9449 14.7411C35.5491 15.7331 36.379 16.5093 37.4128 17.0464C38.4611 17.5886 39.6441 17.8633 40.929 17.8633C41.4241 17.8633 41.9191 17.8014 42.3995 17.6785V15.1335C42.2503 15.1492 42.0974 15.157 41.9409 15.157C40.827 15.157 39.8916 14.7956 39.1563 14.0834C38.4211 13.3654 38.0461 12.4399 38.0461 11.3311V10.6269C38.0461 9.53946 38.432 8.61802 39.189 7.88825C39.9462 7.16649 40.8708 6.80066 41.9409 6.80066C43.0511 6.80066 43.9939 7.16163 44.7401 7.8732C45.4863 8.59345 45.8685 9.51968 45.8685 10.6269V21.0859C45.8685 21.7782 45.672 22.4341 45.2824 23.0352C44.9002 23.621 44.4089 24.0895 43.8192 24.4288C43.215 24.7723 42.5961 24.9459 41.9737 24.9459C40.889 24.9459 39.99 24.5554 39.3019 23.7852C39.0763 23.5332 38.8869 23.261 38.7341 22.9695C38.2026 21.9469 37.1143 21.3585 35.9859 21.3585H34.5008C34.5517 22.6946 34.872 23.8718 35.4544 24.863C36.0878 25.9479 36.9687 26.7794 38.0789 27.3352C39.2037 27.9012 40.4668 28.1879 41.8427 28.1879H42.3013C43.6809 28.1879 44.9767 27.8497 46.1452 27.1818C47.3027 26.5128 48.2346 25.5813 48.9189 24.4142C49.5995 23.2476 49.9453 21.9361 49.9453 20.5163V11.4319C49.9453 9.92477 49.6068 8.61062 48.9153 7.41297C48.2382 6.2425 47.2954 5.31884 46.116 4.66779ZM57.6161 27.0558C57.7843 27.164 57.96 27.2641 58.1416 27.3567C59.0501 26.5512 59.8187 25.5839 60.4046 24.5C59.9192 24.2965 59.4815 23.9773 59.0957 23.5439C58.3759 22.7332 58.0108 21.7288 58.0108 20.5574V11.3643C58.0108 10.1918 58.3759 9.18659 59.0957 8.37773L59.1044 8.3679C59.129 8.34044 59.1531 8.31266 59.1769 8.28454C59.4654 7.97796 59.7816 7.73305 60.1239 7.55036C60.0364 7.40739 59.9457 7.26678 59.8517 7.12853L59.8517 7.12841C59.5326 6.65868 59.1768 6.21698 58.7887 5.80765L58.7878 5.80671C58.763 5.78056 58.738 5.75453 58.713 5.72863L58.6991 5.71434L58.6736 5.68822L58.6626 5.67693L58.6336 5.64757L58.6231 5.63698L58.5957 5.6095L58.5865 5.60027L58.5802 5.59399L58.5456 5.55968L58.5449 5.55899L58.5094 5.52416L58.4883 5.50362L58.4675 5.48345L58.4631 5.4792L58.438 5.45499L58.4339 5.45108L58.4058 5.42432L58.395 5.41404L58.3735 5.39368L58.3514 5.37299L58.3312 5.35409L58.3296 5.35258L58.2956 5.32103L58.2931 5.31878L58.2565 5.28517L58.2531 5.28207L58.2198 5.25174L58.2155 5.24789L58.1941 5.22862L58.1776 5.21379L58.1563 5.19483L58.1325 5.17365L58.1199 5.16255L58.0852 5.13206L58.0796 5.12721L58.0453 5.09748L58.0378 5.09095L58.0336 5.08728C58.0063 5.06377 57.9789 5.04038 57.9514 5.01718L57.9503 5.01621L57.92 4.99078L57.9137 4.98553L57.8973 4.97182L57.8624 4.94291L57.8614 4.94209C57.8172 4.90554 57.7726 4.86947 57.7278 4.83367L57.7277 4.83364L57.6888 4.80276L57.6888 4.80279L57.6827 4.79793L57.5834 4.86049C56.4931 5.56272 55.6181 6.52411 54.9806 7.71891C54.9686 7.74136 54.9566 7.7639 54.9447 7.78653C54.3117 8.99077 53.9821 10.3431 53.9641 11.807C53.9633 11.8605 53.9628 11.9141 53.9628 11.9678V17.7723H53.9633V19.951C53.9633 21.4645 54.2934 22.8598 54.9447 24.0987C55.5971 25.3391 56.4961 26.334 57.6161 27.0558ZM61.3869 28.1692C62.0923 28.2012 62.805 28.1511 63.4892 28.0187V28.0331C64.2833 27.8924 65.0374 27.6142 65.7387 27.2028C65.8206 27.1555 65.901 27.1065 65.9798 27.0558C66.0734 26.9955 66.1654 26.9333 66.2559 26.8691L66.2665 26.8616L66.2943 26.8418C67.254 26.1551 68.0345 25.2467 68.6185 24.1364C69.2525 22.9297 69.5821 21.5745 69.599 20.1071C69.5998 20.0552 69.6002 20.0031 69.6002 19.951V14.1485H69.5998V11.9678C69.5998 10.4539 69.2697 9.05796 68.6185 7.8186C67.9659 6.57787 67.067 5.5825 65.947 4.86049C64.3751 3.84916 62.3372 3.49441 60.4387 3.7971C63.7103 5.5301 65.9603 9.0353 65.9603 13.0537V15.8361V19.484C65.9603 19.5345 65.9598 19.585 65.9591 19.6353L65.9584 19.6771C65.9577 19.7178 65.9567 19.7584 65.9555 19.799L65.9546 19.8313C65.953 19.881 65.951 19.9307 65.9488 19.9802L65.9471 20.0136C65.9451 20.0537 65.9429 20.0938 65.9404 20.1338L65.9378 20.1758C65.9348 20.2221 65.9316 20.2682 65.928 20.3142L65.9273 20.3237L65.9272 20.325L65.927 20.3274C65.9232 20.3756 65.919 20.4236 65.9145 20.4717L65.9104 20.5147C65.9065 20.5544 65.9025 20.5941 65.8982 20.6337L65.895 20.663C65.8895 20.7125 65.8837 20.762 65.8775 20.8113L65.8738 20.84C65.8686 20.8807 65.8631 20.9213 65.8574 20.9618L65.8521 20.9993C65.838 21.0976 65.8225 21.1954 65.8057 21.2928L65.7997 21.3273C65.7921 21.3699 65.7844 21.4125 65.7764 21.4549L65.7727 21.4745C65.7632 21.5243 65.7534 21.574 65.7432 21.6236L65.7391 21.6431C65.73 21.6866 65.7207 21.7301 65.7111 21.7735L65.7051 21.8005C65.683 21.8992 65.6595 21.9975 65.6347 22.0952L65.629 22.1176C65.6176 22.162 65.6059 22.2062 65.594 22.2504L65.5898 22.2659C65.5762 22.3157 65.5623 22.3654 65.5481 22.4149L65.546 22.422C65.5326 22.4682 65.5189 22.5143 65.5049 22.5603L65.4988 22.5804C65.469 22.678 65.4377 22.775 65.4051 22.8714L65.3998 22.8869C65.3843 22.9326 65.3685 22.9782 65.3523 23.0236L65.3494 23.0321C65.3142 23.1307 65.2776 23.2286 65.2397 23.3258L65.2372 23.332C64.4611 25.3158 63.1048 27.0027 61.3869 28.1692ZM30.0154 7.61765H30.0173V7.07796C30.0173 5.20833 28.5392 3.69235 26.7163 3.69235H21.9365V5.98488H22.2182C23.4149 5.98488 24.5649 6.20033 25.6332 6.59507V6.59549C27.3557 7.23183 28.866 8.33426 30.0173 9.75258V7.72759C30.0173 7.69079 30.0166 7.65417 30.0154 7.61765ZM25.6332 10.9963V28.146H30.0173V14.1533C28.866 12.735 27.3557 11.6326 25.6332 10.9963Z" fill="#6F6563"/>
<path d="M9.10372 28.1979L16.4095 9.94734C16.3262 9.93606 16.2422 9.92681 16.1578 9.91968C15.6183 9.96676 15.169 10.0316 14.767 10.1244C14.022 10.2965 13.439 10.5652 12.9989 10.8585C12.6495 11.0913 12.3901 11.3396 12.1546 11.5245C11.9439 11.7912 11.762 12.0925 11.6169 12.4295L4.89355 28.1979H9.10372Z" fill="#9C9288"/>
<path d="M17.91 3.69232H2.40039V7.20009H13.6572L13.7049 7.17934C14.5665 6.80596 15.7027 6.47017 16.844 6.20212C17.7779 5.98287 17.9668 4.65022 17.91 3.83675C17.91 3.78864 17.91 3.73106 17.91 3.69232Z" fill="#9C9288"/>
</svg>
