<svg width="32" height="32" viewBox="0 0 32 32" fill="none" xmlns="http://www.w3.org/2000/svg">
<g clip-path="url(#clip0)">
<path d="M31.7148 23.156C31.6288 23.012 31.0967 21.8559 28.5365 19.4797C25.8563 16.9915 26.2164 17.3956 29.4446 13.0932C31.4107 10.473 32.1968 8.87292 31.9508 8.18887C31.7168 7.53682 30.2707 7.70884 30.2707 7.70884L25.4623 7.73684C25.4623 7.73684 25.1063 7.68884 24.8403 7.84685C24.5823 8.00286 24.4162 8.36289 24.4162 8.36289C24.4162 8.36289 23.6542 10.391 22.6381 12.1152C20.496 15.7534 19.6379 15.9454 19.2879 15.7194C18.4738 15.1934 18.6778 13.6033 18.6778 12.4752C18.6778 8.94893 19.2119 7.47882 17.6357 7.09879C17.1117 6.97278 16.7277 6.88878 15.3896 6.87478C13.6734 6.85677 12.2193 6.88078 11.3973 7.28281C10.8492 7.55083 10.4272 8.14887 10.6852 8.18287C11.0033 8.22488 11.7233 8.37689 12.1053 8.89693C12.5994 9.56698 12.5814 11.0751 12.5814 11.0751C12.5814 11.0751 12.8654 15.2254 11.9193 15.7414C11.2693 16.0955 10.3792 15.3734 8.46907 12.0712C7.49099 10.381 6.75094 8.5109 6.75094 8.5109C6.75094 8.5109 6.60893 8.16287 6.35491 7.97686C6.04689 7.75084 5.61486 7.67884 5.61486 7.67884L1.04252 7.70684C1.04252 7.70684 0.356473 7.72684 0.104454 8.02486C-0.119562 8.29088 0.0864528 8.83892 0.0864528 8.83892C0.0864528 8.83892 3.66672 17.2135 7.71901 21.4359C11.4373 25.3061 15.6576 25.0521 15.6576 25.0521H17.5697C17.5697 25.0521 18.1478 24.9881 18.4418 24.6701C18.7138 24.3781 18.7038 23.83 18.7038 23.83C18.7038 23.83 18.6658 21.2638 19.8579 20.8858C21.032 20.5138 22.5401 23.366 24.1382 24.4641C25.3463 25.2941 26.2644 25.1121 26.2644 25.1121L30.5387 25.0521C30.5387 25.0521 32.7748 24.9141 31.7148 23.156Z" fill="#FFFDFA"/>
</g>
<defs>
<clipPath id="clip0">
<rect width="32" height="32" fill="white"/>
</clipPath>
</defs>
</svg>
